<?xml version="1.0" standalone="no"?>
<!DOCTYPE svg PUBLIC "-//W3C//DTD SVG 20010904//EN"
 "http://www.w3.org/TR/2001/REC-SVG-20010904/DTD/svg10.dtd">
<svg version="1.0" xmlns="http://www.w3.org/2000/svg"
 width="512.000000pt" height="512.000000pt" viewBox="0 0 512.000000 512.000000"
 preserveAspectRatio="xMidYMid meet">

<g transform="translate(0.000000,512.000000) scale(0.100000,-0.100000)"
fill="#000000" stroke="none">
<path d="M2190 5104 c-62 -26 -77 -61 -151 -371 -38 -158 -73 -297 -78 -309
-6 -14 -34 -29 -85 -48 -41 -14 -107 -42 -147 -61 -54 -26 -76 -32 -90 -25
-10 6 -125 74 -256 153 -131 79 -252 149 -270 156 -21 8 -47 10 -75 6 -40 -6
-61 -25 -289 -254 -229 -228 -248 -249 -254 -289 -4 -28 -2 -54 6 -75 7 -18
77 -139 156 -270 79 -131 147 -246 153 -256 7 -14 1 -36 -25 -90 -19 -40 -47
-106 -61 -147 -15 -41 -31 -77 -37 -81 -6 -3 -141 -39 -300 -79 -292 -73 -321
-84 -361 -138 -20 -27 -21 -40 -21 -376 0 -336 1 -349 21 -376 40 -54 69 -65
364 -139 160 -40 296 -77 300 -82 5 -4 22 -44 38 -88 17 -44 44 -109 61 -144
22 -48 28 -69 20 -82 -5 -10 -73 -125 -152 -256 -79 -131 -149 -252 -156 -270
-8 -21 -10 -47 -6 -75 6 -40 25 -61 254 -289 228 -229 249 -248 289 -254 28
-4 54 -2 75 6 18 7 139 77 270 156 131 79 246 147 256 153 14 7 36 1 90 -25
40 -19 106 -47 147 -61 41 -15 77 -31 81 -37 3 -6 39 -141 79 -300 73 -292 84
-321 138 -361 27 -20 40 -21 376 -21 336 0 349 1 376 21 54 40 65 69 139 364
40 160 77 296 82 300 4 5 44 22 88 38 44 17 109 44 144 61 48 22 69 28 82 20
10 -5 125 -73 256 -152 131 -79 252 -149 270 -156 21 -8 47 -10 75 -6 40 6 61
25 289 254 229 228 248 249 254 289 4 28 2 54 -6 75 -7 18 -77 139 -156 270
-79 131 -147 246 -153 256 -7 14 -1 36 25 90 19 40 47 106 61 147 15 41 31 77
37 81 5 3 144 39 309 78 325 79 357 92 383 158 22 55 22 659 0 714 -26 66 -59
79 -372 154 -158 38 -297 73 -309 78 -14 6 -29 34 -48 85 -14 41 -42 107 -61
147 -26 54 -32 76 -25 90 6 10 74 125 153 256 79 131 149 252 156 270 8 21 10
47 6 75 -6 40 -25 61 -254 289 -228 229 -249 248 -289 254 -28 4 -54 2 -75 -6
-18 -7 -139 -77 -270 -156 -131 -79 -246 -147 -256 -153 -14 -7 -36 -1 -90 25
-40 19 -106 47 -147 61 -51 19 -79 34 -85 48 -5 12 -40 151 -78 309 -75 313
-88 346 -154 372 -54 22 -665 21 -717 -1z m558 -349 c8 -33 41 -168 73 -300
71 -290 65 -282 239 -339 63 -21 170 -65 237 -98 108 -53 128 -60 167 -56 33
4 101 40 296 157 l254 152 128 -129 129 -128 -152 -254 c-117 -195 -153 -263
-157 -296 -4 -39 3 -59 56 -167 33 -67 77 -174 98 -237 57 -174 49 -168 339
-239 132 -32 267 -65 300 -73 l60 -14 0 -184 0 -184 -60 -14 c-33 -8 -168 -41
-300 -73 -290 -71 -282 -65 -339 -239 -21 -63 -65 -170 -98 -237 -53 -108 -60
-128 -56 -167 4 -33 40 -101 157 -296 l152 -254 -129 -128 -128 -129 -254 152
c-195 117 -263 153 -296 157 -39 4 -59 -3 -167 -56 -67 -33 -174 -77 -237 -98
-177 -58 -166 -41 -254 -389 l-73 -290 -183 0 -183 0 -73 290 c-88 348 -77
331 -254 389 -63 21 -170 65 -237 98 -108 53 -128 60 -167 56 -33 -4 -101 -40
-296 -157 l-254 -152 -128 129 -129 128 152 254 c117 195 153 263 157 296 4
39 -3 59 -56 167 -33 67 -77 174 -98 237 -58 177 -41 166 -389 254 l-290 73 0
183 0 183 290 73 c348 88 331 77 389 254 21 63 65 170 98 237 53 108 60 128
56 167 -4 33 -40 101 -157 296 l-152 254 129 128 128 129 254 -152 c195 -117
263 -153 296 -157 39 -4 59 3 167 56 67 33 173 77 236 97 115 39 166 69 182
113 5 14 39 147 75 296 35 149 67 277 69 284 4 10 46 12 187 10 l182 -3 14
-60z"/>
<path d="M2380 3585 c-404 -71 -725 -358 -838 -750 -160 -552 165 -1132 723
-1293 552 -160 1132 165 1293 723 175 606 -232 1230 -865 1324 -93 14 -219 12
-313 -4z m355 -308 c269 -75 478 -288 546 -557 8 -31 14 -105 14 -170 0 -123
-12 -188 -53 -285 -93 -219 -290 -387 -522 -446 -71 -18 -269 -18 -340 0 -232
59 -429 227 -522 446 -41 97 -53 162 -53 285 0 123 12 188 53 285 93 220 305
400 522 444 30 6 64 13 75 15 37 9 229 -3 280 -17z"/>
</g>
</svg>
