<?xml version="1.0" standalone="no"?>
<!DOCTYPE svg PUBLIC "-//W3C//DTD SVG 20010904//EN"
 "http://www.w3.org/TR/2001/REC-SVG-20010904/DTD/svg10.dtd">
<svg version="1.0" xmlns="http://www.w3.org/2000/svg"
 width="512.000000pt" height="512.000000pt" viewBox="0 0 512.000000 512.000000"
 preserveAspectRatio="xMidYMid meet">

<g transform="translate(0.000000,512.000000) scale(0.100000,-0.100000)"
fill="#000000" stroke="none">
<path d="M363 4810 c-128 -14 -254 -93 -302 -189 -45 -90 -56 -142 -55 -271 0
-69 6 -144 12 -167 22 -74 14 -73 394 -73 185 0 339 -4 342 -8 9 -15 36 -278
47 -467 9 -160 18 -996 19 -1783 0 -202 0 -203 25 -227 31 -32 69 -32 101 0
l25 25 -5 927 c-2 518 -9 1003 -15 1098 -30 446 -97 774 -191 926 -16 27 -30
54 -30 59 0 7 505 9 1513 8 l1512 -3 46 -27 c78 -46 143 -161 185 -327 l19
-74 -30 -23 c-212 -163 -363 -301 -490 -445 -57 -64 -120 -140 -141 -168 l-38
-51 -1007 0 c-554 0 -1015 -3 -1024 -6 -8 -4 -22 -19 -30 -34 -19 -36 -4 -83
31 -99 18 -8 286 -11 974 -11 l950 0 -34 -52 c-18 -29 -52 -88 -75 -130 l-43
-78 -883 0 c-843 0 -884 -1 -906 -18 -30 -25 -30 -75 0 -105 l22 -22 848 -3
849 -2 -42 -125 -41 -124 -807 -3 -807 -3 -22 -22 c-27 -27 -29 -75 -4 -103
18 -20 31 -20 809 -22 l791 -3 -3 -50 c-3 -49 -5 -52 -128 -175 -140 -142
-155 -170 -111 -214 48 -48 67 -39 211 103 l131 128 60 6 c276 29 689 213 995
442 l75 56 6 -728 c3 -400 9 -753 13 -783 3 -30 11 -111 16 -180 6 -69 13
-137 16 -152 l6 -28 -1259 0 -1259 0 -23 -21 c-22 -21 -23 -25 -15 -113 15
-169 4 -250 -45 -321 -41 -61 -99 -88 -197 -93 -72 -4 -87 -2 -118 18 -116 71
-191 311 -231 740 -10 107 -22 183 -30 197 -19 29 -50 37 -84 23 -46 -19 -52
-45 -41 -183 37 -449 114 -718 243 -850 61 -62 106 -86 190 -98 87 -12 3247
-11 3366 1 114 12 181 40 251 106 107 100 149 266 118 471 -8 57 -17 83 -34
100 l-23 23 -329 0 -330 0 -6 33 c-31 177 -46 593 -46 1317 l0 645 133 135
c125 128 253 278 311 364 47 70 24 136 -49 136 -31 0 -40 -7 -97 -82 -278
-365 -632 -665 -1001 -847 -126 -63 -287 -125 -372 -145 -23 -6 126 149 648
671 476 477 677 685 677 700 0 12 -3 29 -6 38 -9 23 -61 47 -87 40 -12 -4
-325 -309 -694 -678 -370 -370 -673 -669 -673 -664 0 25 89 267 131 355 310
658 1014 1268 1644 1425 163 41 157 40 152 20 -3 -10 -13 -54 -22 -98 -25
-115 -77 -260 -150 -413 -56 -119 -62 -137 -53 -163 18 -52 81 -66 118 -27 27
29 109 198 155 317 67 177 126 446 111 507 -11 43 -56 56 -145 44 -234 -32
-518 -134 -750 -269 -40 -24 -76 -39 -81 -35 -4 5 -17 43 -30 84 -12 41 -40
110 -62 153 -75 144 -163 216 -288 236 -76 13 -3281 13 -3397 1z m163 -168
c31 -16 90 -85 115 -134 12 -24 37 -88 55 -143 l33 -100 -281 -3 c-155 -1
-284 0 -287 4 -3 3 -6 49 -6 102 1 141 39 218 130 265 67 34 186 39 241 9z
m4340 -3818 c10 -55 -4 -171 -27 -223 -38 -86 -94 -125 -206 -141 -63 -9
-2973 -15 -2973 -6 0 2 12 24 26 50 39 69 54 140 55 254 l2 102 1558 0 1558 0
7 -36z"/>
<path d="M1273 3988 c-46 -22 -45 -114 2 -132 9 -3 259 -6 556 -6 l540 0 24
25 c14 13 25 36 25 50 0 14 -11 37 -25 50 l-24 25 -538 -1 c-358 0 -545 -4
-560 -11z"/>
<path d="M3175 1471 c-49 -21 -64 -83 -30 -121 17 -19 30 -20 330 -20 284 0
313 2 328 18 29 32 31 67 4 98 l-25 29 -294 2 c-161 1 -302 -2 -313 -6z"/>
</g>
</svg>
