<svg xmlns="http://www.w3.org/2000/svg" width="1em" height="1em" viewBox="0 0 24 24">
	<path fill="currentColor" d="M8.625 20q-1.927 0-3.276-1.349T4 15.375q0-.933.358-1.784q.358-.852 1.004-1.499l6.73-6.73q.646-.647 1.498-1.004Q14.443 4 15.376 4q1.927 0 3.276 1.349T20 8.625q0 .933-.358 1.785q-.357.851-1.003 1.498l-6.731 6.73q-.646.646-1.498 1.004T8.625 20m6.304-5.804L17.95 11.2q.5-.5.775-1.175t.275-1.4q0-1.5-1.063-2.562T15.375 5q-.725 0-1.4.275T12.8 6.05L9.804 9.071zM8.625 19q.725 0 1.4-.275t1.175-.775l2.996-3.021l-5.125-5.125L6.05 12.8q-.5.5-.775 1.175T5 15.375q0 1.5 1.063 2.563T8.625 19" />
</svg>